# xmcd
#
# Track frame offsets:
# 150
# 17724
# 31513
# 50059
# 64920
# 82802
# 108713
# 124346
# 137516
# 153494
# 171560
# 186170
#
# Disc length: 2696 seconds
#
# Revision: 1
# Processed by: cddbd v1.5.2PL0 Copyright (c) Steve Scherf et al.
# Submitted via: CedeCatalogueitor 2.6.0.6 http://personales.ya.com/cdcatalogueitor
#
DISCID=a20a860c
DTITLE=Shane Dwight - What You Need
DYEAR=2007
DGENRE=
TTITLE0=What You Need
TTITLE1=Break My Heart Anyway
TTITLE2=Summers Faded
TTITLE3=Have Some Of That
TTITLE4=First Train Runnin'
TTITLE5=Blues Power
TTITLE6=Rockin' daddy
TTITLE7=Shake Your Money Maker
TTITLE8=Dust My Broom
TTITLE9=Roll over beethoven
TTITLE10=Dimples
TTITLE11=Folsom Prison
EXTD=
EXTT0=
EXTT1=
EXTT2=
EXTT3=
EXTT4=
EXTT5=
EXTT6=
EXTT7=
EXTT8=
EXTT9=
EXTT10=
EXTT11=
PLAYORDER=
